<svg xmlns="http://www.w3.org/2000/svg" width="12.302" height="14.059" viewBox="0 0 12.302 14.059">
  <path id="Icon_metro-attachment" data-name="Icon metro-attachment" d="M12.237,6.418l-.892-.891L6.886,9.986a1.892,1.892,0,1,0,2.676,2.675L14.913,7.31a3.153,3.153,0,0,0-4.459-4.458L4.835,8.47l-.012.012a4.4,4.4,0,0,0,6.22,6.218l.011-.012h0l3.835-3.835L14,9.962,10.162,13.8l-.012.012A3.136,3.136,0,1,1,5.715,9.374l.012-.012h0l5.619-5.618a1.892,1.892,0,0,1,2.676,2.675L8.67,11.769a.631.631,0,0,1-.892-.891l4.46-4.459Z" transform="translate(-3.535 -1.928)" fill="#6a6a6b"/>
</svg>
