<svg id="Icon_ionic-ios-cloud-upload" data-name="Icon ionic-ios-cloud-upload" xmlns="http://www.w3.org/2000/svg" width="20.2" height="17.675" viewBox="0 0 20.2 17.675">
  <path id="Path_617" data-name="Path 617" d="M17.245,7.529A5.918,5.918,0,0,0,6.494,4.8a2.8,2.8,0,0,0-1.061-.209,2.922,2.922,0,0,0-2.817,2.9A3.854,3.854,0,0,0,0,11.147a3.71,3.71,0,0,0,3.586,3.728h6v-5.6L7.7,11.139a.513.513,0,1,1-.722-.73L9.737,7.687h0A.5.5,0,0,1,9.9,7.58a.49.49,0,0,1,.2-.039.514.514,0,0,1,.359.146l2.762,2.722a.513.513,0,1,1-.722.73L10.613,9.277v5.6h6a3.713,3.713,0,0,0,.631-7.346Z" transform="translate(0 -2.25)" fill="#138eff"/>
  <path id="Path_618" data-name="Path 618" d="M17.086,29.287a.513.513,0,1,0,1.026,0V24.75H17.086Z" transform="translate(-7.499 -12.125)" fill="#138eff"/>
</svg>
