<svg xmlns="http://www.w3.org/2000/svg" width="153.691" height="120" viewBox="0 0 153.691 120">
  <g id="otp_img" data-name="otp img" transform="translate(-597.15 -230)">
    <circle id="Ellipse_20" data-name="Ellipse 20" cx="60" cy="60" r="60" transform="translate(623 230)" fill="#FCFCFC"/>
    <line id="Line_3" data-name="Line 3" y1="11" x2="21" transform="translate(598.5 315.5)" fill="none" stroke="#dee1e8" stroke-linecap="round" stroke-width="2"/>
    <line id="Line_6" data-name="Line 6" y1="11" x2="21" transform="translate(721.5 256.5)" fill="none" stroke="#dee1e8" stroke-linecap="round" stroke-width="2"/>
    <line id="Line_4" data-name="Line 4" y1="8" x2="16" transform="translate(610.5 320.5)" fill="none" stroke="#dee1e8" stroke-linecap="round" stroke-width="2"/>
    <line id="Line_5" data-name="Line 5" y1="8" x2="16" transform="translate(733.5 261.5)" fill="none" stroke="#dee1e8" stroke-linecap="round" stroke-width="2"/>
    <g id="notification_1_" data-name="notification (1)" transform="translate(645 252)">
      <g id="Group_10" data-name="Group 10" transform="translate(0)">
        <g id="Group_9" data-name="Group 9">
          <path id="Path_17" data-name="Path 17" d="M138.423,7.968V68.282a7.971,7.971,0,0,1-7.957,7.968h-33.9a7.971,7.971,0,0,1-7.957-7.968V7.968A7.971,7.971,0,0,1,96.563,0h33.9A7.971,7.971,0,0,1,138.423,7.968Z" transform="translate(-75.41)" fill="#56788b"/>
          <path id="Path_18" data-name="Path 18" d="M360.627,7.968V68.282a7.971,7.971,0,0,1-7.957,7.968h-2.978a7.971,7.971,0,0,0,7.957-7.968V7.968A7.971,7.971,0,0,0,349.692,0h2.978A7.971,7.971,0,0,1,360.627,7.968Z" transform="translate(-297.614)" fill="#415e6f"/>
          <path id="Path_19" data-name="Path 19" d="M159.458,32.038V92.723a3.54,3.54,0,0,1-3.534,3.538H122.1a3.54,3.54,0,0,1-3.534-3.538V32.038A3.54,3.54,0,0,1,122.1,28.5h3.531a1.118,1.118,0,0,1,1.063.774l.874,2.715a1.618,1.618,0,0,0,1.544,1.127h19.8a1.619,1.619,0,0,0,1.544-1.127l.874-2.715a1.117,1.117,0,0,1,1.063-.774h3.531a3.54,3.54,0,0,1,3.534,3.538Z" transform="translate(-100.907 -24.256)" fill="#d9f0f4"/>
          <path id="Path_20" data-name="Path 20" d="M355.944,32.038V92.723a3.54,3.54,0,0,1-3.534,3.538h-2.978a3.54,3.54,0,0,0,3.534-3.538V32.038a3.54,3.54,0,0,0-3.534-3.538h2.978A3.54,3.54,0,0,1,355.944,32.038Z" transform="translate(-297.393 -24.256)" fill="#bae1e5"/>
          <path id="Path_21" data-name="Path 21" d="M220.961,21.985h-12.1a1.117,1.117,0,0,0,0,2.234h12.1a1.117,1.117,0,0,0,0-2.234Z" transform="translate(-176.808 -18.711)" fill="#415e6f"/>
          <path id="Path_22" data-name="Path 22" d="M220.961,434.722h-12.1a1.117,1.117,0,0,0,0,2.234h12.1a1.117,1.117,0,0,0,0-2.234Z" transform="translate(-176.808 -369.981)" fill="#56788b"/>
          <path id="Path_23" data-name="Path 23" d="M25.577,101.185v11.262a3.418,3.418,0,0,1-3.412,3.415H7.681l-5.888,4.48a1.108,1.108,0,0,1-.676.228,1.1,1.1,0,0,1-.5-.116,1.117,1.117,0,0,1-.621-1V101.185A3.418,3.418,0,0,1,3.412,97.77H22.165a3.418,3.418,0,0,1,3.412,3.415Z" transform="translate(0 -83.21)" fill="#4dd4f7"/>
          <path id="Path_24" data-name="Path 24" d="M135.223,101.185v11.262a3.418,3.418,0,0,1-3.412,3.415h-2.978a3.418,3.418,0,0,0,3.412-3.415V101.185a3.418,3.418,0,0,0-3.412-3.415h2.978A3.418,3.418,0,0,1,135.223,101.185Z" transform="translate(-109.646 -83.21)" fill="#00c2f3"/>
          <g id="Group_8" data-name="Group 8" transform="translate(5.724 19.873)">
            <path id="Path_25" data-name="Path 25" d="M51.445,133.444h-11.9a1.117,1.117,0,0,0,0,2.234h11.9a1.117,1.117,0,0,0,0-2.234Z" transform="translate(-38.432 -133.444)" fill="#fff"/>
            <path id="Path_26" data-name="Path 26" d="M49.958,167.444H39.549a1.117,1.117,0,0,0,0,2.234H49.958a1.117,1.117,0,0,0,0-2.234Z" transform="translate(-38.432 -162.381)" fill="#fff"/>
          </g>
        </g>
      </g>
      <g id="Group_11" data-name="Group 11" transform="translate(36.477 26.221)">
        <path id="Path_27" data-name="Path 27" d="M414.455,177.14a3.666,3.666,0,0,0-5.186,0l-1.686,1.687a1.117,1.117,0,0,0,0,1.579l3.606,3.608a1.117,1.117,0,0,0,1.579,0l1.686-1.687A3.672,3.672,0,0,0,414.455,177.14Z" transform="translate(-383.081 -176.066)" fill="#ff6b81"/>
        <path id="Path_28" data-name="Path 28" d="M282.106,309.775l-5.814-5.816a1.116,1.116,0,0,0-1.579,0,5.228,5.228,0,1,0,7.393,7.4A1.117,1.117,0,0,0,282.106,309.775Z" transform="translate(-268.977 -284.634)" fill="#ff6b81"/>
        <path id="Path_29" data-name="Path 29" d="M263.984,214.482a2.78,2.78,0,0,1-.634.074,2.738,2.738,0,0,1-1.941-.808l-2.106-2.106-13.563-13.57a2.756,2.756,0,0,1,1.066-4.56l5.045-1.709,5.369-5.372a11.187,11.187,0,0,1,14.7-.985,11.232,11.232,0,0,1,1.124.985,11.2,11.2,0,0,1,0,15.833l-5.37,5.371-1.706,5.046h0A2.743,2.743,0,0,1,263.984,214.482Z" transform="translate(-244.932 -182.097)" fill="#fbdf63"/>
        <path id="Path_30" data-name="Path 30" d="M348.214,225.8a2.742,2.742,0,0,1-1.985,1.8,2.779,2.779,0,0,1-.634.074,2.738,2.738,0,0,1-1.941-.808l-2.086-2.086a2.735,2.735,0,0,0,1.921.788,2.779,2.779,0,0,0,.634-.074,2.742,2.742,0,0,0,1.985-1.8h0l1.706-5.046,5.37-5.371a11.2,11.2,0,0,0,.981-14.711,11.2,11.2,0,0,1,1.125,16.817l-5.37,5.371-1.706,5.046Z" transform="translate(-327.177 -195.21)" fill="#ffa402"/>
      </g>
      <g id="Group_12" data-name="Group 12" transform="translate(38.596 18.878)">
        <path id="Path_31" data-name="Path 31" d="M294.111,158.372a3.354,3.354,0,0,0-3.35,3.351,1.117,1.117,0,1,0,2.234,0,1.118,1.118,0,0,1,1.116-1.117,1.117,1.117,0,1,0,0-2.234Z" transform="translate(-286.055 -153.665)" fill="#ff6b81"/>
        <path id="Path_32" data-name="Path 32" d="M267.22,126.764a8.066,8.066,0,0,0-8.056,8.058,1.117,1.117,0,0,0,2.234,0A5.83,5.83,0,0,1,267.22,129a1.117,1.117,0,1,0,0-2.234Z" transform="translate(-259.164 -126.764)" fill="#ff6b81"/>
        <path id="Path_33" data-name="Path 33" d="M451.525,322.546a3.354,3.354,0,0,0,3.35-3.351,1.117,1.117,0,0,0-2.234,0,1.118,1.118,0,0,1-1.116,1.117,1.117,1.117,0,1,0,0,2.234Z" transform="translate(-421.927 -289.586)" fill="#ff6b81"/>
        <path id="Path_34" data-name="Path 34" d="M458.464,318.078a1.117,1.117,0,0,0-1.117,1.117,5.83,5.83,0,0,1-5.822,5.824,1.117,1.117,0,1,0,0,2.234,8.066,8.066,0,0,0,8.056-8.058A1.117,1.117,0,0,0,458.464,318.078Z" transform="translate(-421.927 -289.586)" fill="#ff6b81"/>
      </g>
      <g id="Group_13" data-name="Group 13" transform="translate(24.305 52.779)">
        <path id="Path_35" data-name="Path 35" d="M164.321,356.634h4.787a1.117,1.117,0,0,0,0-2.234h-4.787a1.117,1.117,0,1,0,0,2.234Z" transform="translate(-163.204 -354.4)" fill="#90abbd"/>
        <path id="Path_36" data-name="Path 36" d="M172.082,389.4h-7.761a1.117,1.117,0,1,0,0,2.234h7.761a1.117,1.117,0,1,0,0-2.234Z" transform="translate(-163.204 -384.188)" fill="#90abbd"/>
      </g>
    </g>
  </g>
</svg>
