<svg id="Group_104" data-name="Group 104" xmlns="http://www.w3.org/2000/svg" width="18.992" height="23.205" viewBox="0 0 18.992 23.205">
  <path id="Path_604" data-name="Path 604" d="M63,4.188a12.08,12.08,0,0,0-18.291,0,1.391,1.391,0,0,0,0,1.847l1.8,1.99a1.248,1.248,0,0,0,1.813,0,7.814,7.814,0,0,1,1.992-1.6,1.285,1.285,0,0,0,.672-1.106l.258-1.769a7.652,7.652,0,0,1,5.229,0l.251,1.694a1.361,1.361,0,0,0,.667,1.185,7.841,7.841,0,0,1,2,1.6,1.209,1.209,0,0,0,1.812,0L63,6.035A1.392,1.392,0,0,0,63,4.188Zm-.783,1.141-1.8,1.994a.158.158,0,0,1-.247,0A8.875,8.875,0,0,0,57.908,5.51c-.082-.048-.133-.15-.139-.344l-.3-2.087a.526.526,0,0,0-.343-.42,9.474,9.474,0,0,0-3.26-.625,9.609,9.609,0,0,0-3.275.624.526.526,0,0,0-.345.42l-.31,2.163a.291.291,0,0,1-.13.258,8.875,8.875,0,0,0-2.266,1.817.158.158,0,0,1-.248,0l-1.8-1.989a.344.344,0,0,1,0-.433,11.025,11.025,0,0,1,16.725,0A.344.344,0,0,1,62.216,5.328Z" transform="translate(-44.357)" fill="#4c81fe"/>
  <path id="Path_605" data-name="Path 605" d="M223.19,179.975a1.055,1.055,0,1,0-1.055-1.055A1.056,1.056,0,0,0,223.19,179.975Z" transform="translate(-213.694 -169.42)" fill="#4c81fe"/>
  <path id="Path_606" data-name="Path 606" d="M134.323,177.865a1.055,1.055,0,1,0,1.055,1.055A1.056,1.056,0,0,0,134.323,177.865Z" transform="translate(-129.047 -169.42)" fill="#4c81fe"/>
  <path id="Path_607" data-name="Path 607" d="M312.058,177.865a1.055,1.055,0,1,0,1.055,1.055A1.056,1.056,0,0,0,312.058,177.865Z" transform="translate(-298.343 -169.42)" fill="#4c81fe"/>
  <path id="Path_608" data-name="Path 608" d="M223.19,268.777a1.055,1.055,0,1,0-1.055-1.055A1.056,1.056,0,0,0,223.19,268.777Z" transform="translate(-213.694 -254.006)" fill="#4c81fe"/>
  <path id="Path_609" data-name="Path 609" d="M134.323,266.666a1.055,1.055,0,1,0,1.055,1.055A1.056,1.056,0,0,0,134.323,266.666Z" transform="translate(-129.047 -254.005)" fill="#4c81fe"/>
  <path id="Path_610" data-name="Path 610" d="M312.058,266.666a1.055,1.055,0,1,0,1.055,1.055A1.056,1.056,0,0,0,312.058,266.666Z" transform="translate(-298.343 -254.005)" fill="#4c81fe"/>
  <path id="Path_611" data-name="Path 611" d="M223.19,357.579a1.055,1.055,0,1,0-1.055-1.055A1.056,1.056,0,0,0,223.19,357.579Z" transform="translate(-213.694 -338.592)" fill="#4c81fe"/>
  <path id="Path_612" data-name="Path 612" d="M134.323,355.468a1.055,1.055,0,1,0,1.055,1.055A1.056,1.056,0,0,0,134.323,355.468Z" transform="translate(-129.047 -338.591)" fill="#4c81fe"/>
  <path id="Path_613" data-name="Path 613" d="M312.058,355.468a1.055,1.055,0,1,0,1.055,1.055A1.056,1.056,0,0,0,312.058,355.468Z" transform="translate(-298.343 -338.591)" fill="#4c81fe"/>
  <circle id="Ellipse_9" data-name="Ellipse 9" cx="1.055" cy="1.055" r="1.055" transform="translate(8.441 21.095)" fill="#4c81fe"/>
</svg>
